<?xml version="1.0" encoding="utf-8"?>
<!-- Generator: Adobe Illustrator 16.0.0, SVG Export Plug-In . SVG Version: 6.00 Build 0)  -->
<!DOCTYPE svg PUBLIC "-//W3C//DTD SVG 1.1//EN" "http://www.w3.org/Graphics/SVG/1.1/DTD/svg11.dtd">
<svg version="1.1" id="Layer_1" xmlns="http://www.w3.org/2000/svg" xmlns:xlink="http://www.w3.org/1999/xlink" x="0px" y="0px"
	 width="270px" height="360px" viewBox="0 0 270 360" style="enable-background:new 0 0 270 360;" xml:space="preserve">
<g id="Layer_1_1_">
	<g>
		<g>
			<path d="M19,6.4h69.2c24.2,0,47.1,4.1,68.7,12.4c21.5,8.3,40.4,20,56.6,35.4c16.2,15.3,29,33.9,38.4,55.8
				c9.4,21.9,14.1,46.3,14.1,73.2c0,19.9-3.5,40.2-10.4,61.1c-6.9,20.9-18.1,39.9-33.6,57.1s-35.6,31.2-60.3,42.2
				c-24.7,10.9-55,16.4-90.6,16.4H19V6.4z M26,13.5v338.9h49.5c33.3,0,61.7-5.2,85.1-15.7c23.4-10.4,42.4-23.9,57.1-40.4
				c14.6-16.5,25.2-34.7,31.8-54.5c6.6-19.9,9.8-39.4,9.8-58.6c0-25.9-4.5-49.4-13.4-70.4c-8.9-21-21.1-38.9-36.6-53.5
				c-15.5-14.6-33.4-25.9-53.8-33.8c-20.4-7.9-41.8-11.9-64.4-11.9L26,13.5L26,13.5z"/>
		</g>
	</g>
</g>
<g id="Layer_2">
</g>
<g id="Layer_3">
</g>
</svg>
