<?xml version="1.0" encoding="utf-8"?>
<!-- Generator: Adobe Illustrator 19.2.1, SVG Export Plug-In . SVG Version: 6.00 Build 0)  -->
<svg version="1.1" id="Layer_1" xmlns="http://www.w3.org/2000/svg" xmlns:xlink="http://www.w3.org/1999/xlink" x="0px" y="0px"
	 viewBox="0 0 800 800" style="enable-background:new 0 0 800 800;" xml:space="preserve">
<style type="text/css">
	.st0{fill:#ECF0F1;}
	.st1{fill:#95A5A6;}
</style>
<image style="display:none;overflow:visible;enable-background:new    ;" width="450" height="470" xlink:href="CB522583.jpeg"  transform="matrix(0.9433 0 0 0.9433 45.9167 130.9167)">
</image>
<path class="st0" d="M128,223.6c0,0-3.1,131.9-1.6,141.4c1.8,12,0.4,13.2,6.3,26.7s14.2,27.1,18.1,31.7s8.9,11,15.5,16.5
	s14.6,13.4,26.4,19.3S217,471,236.1,473s30.1,1.3,43.8-1.9s33.8-11.6,37.9-15s16.4-12.3,17.4-14.9V505c0,0-11.9,6-22.6,9.9
	s-30.4,9.1-45.8,9.8s-41.5,0.9-60.4-5s-52.4-21.4-61-29s-26.4-25-32-32.8s-16.6-25.8-21-35.1s-8.5-20.3-11.3-32.9
	s-4.9-22.3-4.9-33.9s0.3-24.6,1.8-32.8s4.6-25.9,9.8-37s14.5-30.6,20.1-37.6S128,223.6,128,223.6z"/>
<path class="st0" d="M169.4,256.6v-62.4c0,0,21.9-9.8,31.6-12.6s24-5.8,32.5-6.5s29.1-1.8,40.5,0s28.3,5.3,40.3,10.1
	s31.1,14.8,39,20.4s15.3,11.3,20.3,15.9s22.8,25.4,28.5,35.1s13,24.6,15.3,31.9s7.8,30.6,9.4,42.9s2.1,26.6,1.4,36s-4,23.9-5.8,30.5
	s-10.5,31.6-17.6,41.8s-22.5,28.5-26.3,33l-2.3,2.5c0,0,2-116.1,0.9-133.4c-0.7-11.4-3.1-28.1-8.6-38.9s-21.4-35.8-30.9-43.8
	s-24.6-21.7-46.5-27.8c-18.6-5.2-19.8-5.4-41.8-5.7c-18.4-0.3-39.4,6.3-49.3,11.1S172.4,252.9,169.4,256.6z"/>
<path class="st0" d="M252.1,405.8c0,0,6.5,0.7,16.5-1.1c11.5-2.1,23.4-9.3,30.8-20.8s14.8-27.1,10.9-45.9s-17.5-32.9-31.3-38.1
	s-34.3-3.9-43.1-3.8s-37.8,0.3-37.8,0.3v110.1L252.1,405.8z"/>
<path class="st1" d="M252.2,391.5c0,0,4.8,0.5,12.2-0.8c8.5-1.5,17.3-6.8,22.7-15.3c5.4-8.5,10.9-20,8-33.9s-12.9-24.3-23.1-28.1
	c-10.1-3.9-25.3-2.9-31.8-2.8c-6.6,0.1-27.9,0.2-27.9,0.2V392L252.2,391.5z"/>
</svg>
