<?xml version="1.0" encoding="iso-8859-1"?>
<!-- Generator: Adobe Illustrator 19.0.0, SVG Export Plug-In . SVG Version: 6.00 Build 0)  -->
<svg version="1.1" id="Layer_1" xmlns="http://www.w3.org/2000/svg" xmlns:xlink="http://www.w3.org/1999/xlink" x="0px" y="0px"
	 viewBox="0 0 512 512" style="enable-background:new 0 0 512 512;" xml:space="preserve">
<path style="fill:#47CEAC;" d="M0,256.006C0,397.402,114.606,512.004,255.996,512C397.394,512.004,512,397.402,512,256.006
	C512.009,114.61,397.394,0,255.996,0C114.606,0,0,114.614,0,256.006z"/>
<path style="fill:#36BB9A;" d="M512,256.005c0.002-33.453-6.48-65.373-18.147-94.665c-0.17-0.166-0.315-0.356-0.507-0.507
	c-0.34-0.43-0.707-0.798-1.137-1.137c-0.339-0.43-67.817-67.906-68.246-68.246c-0.34-0.43-0.707-0.798-1.137-1.137
	c-1.285-1.625-3.187-2.734-5.421-2.734h-91.229c-3.878,0-7.018,3.142-7.018,7.018v4.117c-0.187-0.185-0.447-0.276-0.653-0.441
	c-0.339-0.43-7.532-7.621-7.961-7.961c-1.285-1.625-3.187-2.734-5.421-2.734h-98.246c-3.878,0-7.018,3.142-7.018,7.018v4.117
	c-0.187-0.185-0.446-0.276-0.652-0.439c-0.34-0.43-0.707-0.798-1.137-1.137c-0.339-0.43-6.395-6.484-6.825-6.825
	c-1.285-1.625-3.187-2.734-5.421-2.734h-91.23c-3.878,0-7.018,3.142-7.018,7.018v91.228c0,2.234,1.108,4.135,2.734,5.421
	c0.34,0.43,0.707,0.798,1.137,1.137c0.34,0.43,7.081,7.291,7.264,7.477h-4.117c-3.878,0-7.018,3.142-7.018,7.018v98.246
	c0,2.235,1.107,4.137,2.733,5.421c0.34,0.43,0.709,0.798,1.139,1.138c0.339,0.43,7.079,7.29,7.264,7.476h-4.117
	c-3.878,0-7.018,3.139-7.018,7.018v91.229c0,2.235,1.108,4.137,2.734,5.421c0.339,0.43,0.707,0.798,1.137,1.137
	c0.339,0.43,0.707,0.798,1.137,1.137c0.339,0.43,67.818,67.907,68.246,68.246c0.151,0.193,0.342,0.338,0.509,0.509
	c29.289,11.665,61.204,18.145,94.653,18.144C397.394,512.004,512,397.401,512,256.005z"/>
<g>
	<path style="fill:#F4F6F9;" d="M185.824,87.579H94.596c-3.878,0-7.018,3.142-7.018,7.018v91.228c0,3.875,3.139,7.018,7.018,7.018
		h91.228c3.878,0,7.018-3.142,7.018-7.018V94.596C192.842,90.721,189.703,87.579,185.824,87.579z M178.806,178.806h-77.193v-77.193
		h77.194v77.193H178.806z"/>
	<path style="fill:#F4F6F9;" d="M305.123,87.579h-98.245c-3.878,0-7.018,3.142-7.018,7.018v91.228c0,3.875,3.139,7.018,7.018,7.018
		h98.245c3.878,0,7.018-3.142,7.018-7.018V94.596C312.141,90.721,309.002,87.579,305.123,87.579z M298.106,178.806h-84.211v-77.193
		h84.211V178.806z"/>
	<path style="fill:#F4F6F9;" d="M417.404,87.579h-91.228c-3.878,0-7.018,3.142-7.018,7.018v91.228c0,3.875,3.139,7.018,7.018,7.018
		h91.228c3.878,0,7.018-3.142,7.018-7.018V94.596C424.421,90.721,421.282,87.579,417.404,87.579z M410.386,178.806h-77.194v-77.193
		h77.194V178.806z"/>
	<path style="fill:#F4F6F9;" d="M185.824,199.859H94.596c-3.878,0-7.018,3.142-7.018,7.018v98.245c0,3.878,3.139,7.018,7.018,7.018
		h91.228c3.878,0,7.018-3.139,7.018-7.018v-98.245C192.842,203.002,189.703,199.859,185.824,199.859z M178.806,298.106h-77.193
		v-84.211h77.194v84.211H178.806z"/>
	<path style="fill:#F4F6F9;" d="M305.123,199.859h-98.245c-3.878,0-7.018,3.142-7.018,7.018v98.245c0,3.878,3.139,7.018,7.018,7.018
		h98.245c3.878,0,7.018-3.139,7.018-7.018v-98.245C312.141,203.002,309.002,199.859,305.123,199.859z M298.106,298.106h-84.211
		v-84.211h84.211V298.106z"/>
	<path style="fill:#F4F6F9;" d="M417.404,199.859h-91.228c-3.878,0-7.018,3.142-7.018,7.018v98.245c0,3.878,3.139,7.018,7.018,7.018
		h91.228c3.878,0,7.018-3.139,7.018-7.018v-98.245C424.421,203.002,421.282,199.859,417.404,199.859z M410.386,298.106h-77.194
		v-84.211h77.194V298.106z"/>
	<path style="fill:#F4F6F9;" d="M185.824,319.158H94.596c-3.878,0-7.018,3.139-7.018,7.018v91.228c0,3.878,3.139,7.018,7.018,7.018
		h91.228c3.878,0,7.018-3.139,7.018-7.018v-91.228C192.842,322.297,189.703,319.158,185.824,319.158z M178.806,410.386h-77.193
		v-77.194h77.194v77.194H178.806z"/>
	<path style="fill:#F4F6F9;" d="M305.123,319.158h-98.245c-3.878,0-7.018,3.139-7.018,7.018v91.228c0,3.878,3.139,7.018,7.018,7.018
		h98.245c3.878,0,7.018-3.139,7.018-7.018v-91.228C312.141,322.297,309.002,319.158,305.123,319.158z M298.106,410.386h-84.211
		v-77.194h84.211V410.386z"/>
	<path style="fill:#F4F6F9;" d="M417.404,319.158h-91.228c-3.878,0-7.018,3.139-7.018,7.018v91.228c0,3.878,3.139,7.018,7.018,7.018
		h91.228c3.878,0,7.018-3.139,7.018-7.018v-91.228C424.421,322.297,421.282,319.158,417.404,319.158z M410.386,410.386h-77.194
		v-77.194h77.194V410.386z"/>
</g>
<g>
</g>
<g>
</g>
<g>
</g>
<g>
</g>
<g>
</g>
<g>
</g>
<g>
</g>
<g>
</g>
<g>
</g>
<g>
</g>
<g>
</g>
<g>
</g>
<g>
</g>
<g>
</g>
<g>
</g>
</svg>
